<svg width="187" height="77" viewBox="0 0 187 77" fill="none" xmlns="http://www.w3.org/2000/svg">
<g clip-path="url(#clip0_6_35)">
<ellipse cx="42.609" cy="38.0615" rx="26.3892" ry="26.2451" stroke="black" stroke-width="14"/>
<path d="M11.7303 23.4571L11.5616 23.514L11.4669 23.6648C10.7696 24.7744 10.6322 25.8688 10.6677 27.8871C8.76587 28.1991 7.19883 29.2358 5.75994 30.1984L5.706 30.2345C4.135 31.2857 2.72471 32.2294 1.06858 32.4017L1.05972 32.4026L1.0509 32.4038C0.93564 32.42 0.815253 32.4668 0.713033 32.5584C0.612634 32.6483 0.557996 32.7559 0.530012 32.8495C0.479082 33.0198 0.504025 33.1814 0.524585 33.2729C0.547812 33.3763 0.585049 33.4734 0.623382 33.5493C0.641375 33.585 0.668728 33.6342 0.705958 33.6818C0.714074 33.6922 0.727952 33.7094 0.747508 33.7295L4.41564 39.1534C5.35961 40.603 6.11808 41.6161 6.90954 42.3439C7.71683 43.0862 8.54216 43.5174 9.59281 43.8372L10.6558 44.1608L10.193 43.1506C9.96188 42.6462 9.73856 42.2188 9.48537 41.7996L9.5002 41.1802C9.55082 41.2447 9.60481 41.3133 9.66278 41.387L9.67646 41.4044L9.7162 41.4549L10.1303 41.981L10.5172 41.4346C10.6043 41.3116 10.6771 41.1984 10.739 41.0918L10.9995 41.969L11.5919 41.0927C11.622 41.0481 11.648 41.0121 11.6705 40.983C12.0892 41.7383 12.4901 42.3304 12.9688 42.8259C13.5366 43.4137 14.1905 43.8418 15.0584 44.2603L16.0965 44.7608L15.7528 43.6608C15.2691 42.113 15.03 41.0568 14.9344 40.1566C14.8533 39.3925 14.8738 38.7259 14.9477 37.9447C15.5709 37.9188 15.9965 38.0092 16.3083 38.1938C16.6578 38.4008 16.9472 38.7763 17.1839 39.4716C17.0543 41.2822 16.9605 42.2606 16.5884 43.6834L16.5721 43.7456V43.8099V46.4507C16.5084 46.4289 16.4723 46.4121 16.4484 46.398C16.4332 46.389 16.4213 46.3804 16.3911 46.3471C16.3745 46.3287 16.3574 46.3085 16.3314 46.2779L16.3201 46.2646C16.2895 46.2285 16.2519 46.1846 16.2066 46.1348C16.1701 46.0948 16.1153 46.041 16.0419 45.9969C15.9685 45.9528 15.8378 45.8958 15.6726 45.9192C15.4984 45.9439 15.382 46.0439 15.3174 46.1263C15.258 46.202 15.2279 46.2793 15.2122 46.3268C15.1807 46.422 15.167 46.5255 15.1589 46.6016C15.1499 46.685 15.1436 46.7794 15.1378 46.8702C15.1215 47.1232 15.1041 47.3753 15.0619 47.5941C14.7193 47.5149 14.4498 47.361 14.1984 47.1378C13.8371 46.8171 13.5091 46.3512 13.08 45.6984L12.7703 45.2274L12.3396 45.591C12.0837 45.8071 11.9214 46.1703 11.8127 46.4981C11.6954 46.8523 11.6072 47.2722 11.5522 47.6988C11.497 48.1265 11.4733 48.575 11.4907 48.9886C11.5077 49.3941 11.5656 49.8015 11.6951 50.1272C11.7733 50.324 11.9215 50.5398 12.0899 50.7478C12.2655 50.9646 12.49 51.2055 12.7509 51.4552C13.2727 51.9545 13.958 52.506 14.7275 52.9874C16.2257 53.9248 18.2094 54.698 19.9309 54.0252C21.3647 53.5139 22.3396 52.8448 24.0647 51.5487L24.2644 51.3987V51.1489V50.8331V50.2553L23.6935 50.3382L23.6934 50.3382L23.6931 50.3382L23.6928 50.3383L23.6926 50.3383L23.6916 50.3385L23.6795 50.34C23.6734 50.3407 23.6655 50.3417 23.656 50.3427C23.6476 50.3436 23.6378 50.3446 23.6269 50.3457C23.5804 50.3501 23.5158 50.3549 23.4438 50.3562C23.3808 50.3574 23.3234 50.3557 23.2734 50.3517C23.353 50.2391 23.4977 50.0688 23.7546 49.8318C23.9167 49.6822 24.0661 49.5428 24.2053 49.4129C24.8785 48.7848 25.3148 48.3777 25.8186 48.0957C26.3898 47.7759 27.0728 47.6104 28.36 47.5965L28.3729 47.5964L28.3858 47.5956C29.2858 47.5393 29.844 47.6769 30.305 47.9817C30.7909 48.303 31.2262 48.8453 31.8039 49.7364L32.1504 50.2708L32.5872 49.8073C32.9892 49.3808 33.6875 48.8928 34.6036 48.391C35.5107 47.8941 36.5984 47.4015 37.7502 46.9567C40.0621 46.0638 42.582 45.3824 44.368 45.2313C46.2045 45.076 48.031 45.0151 49.4003 44.9932C50.0844 44.9823 50.6532 44.9811 51.0506 44.9827C51.2493 44.9834 51.4051 44.9849 51.5109 44.9861L51.6313 44.9877L51.6618 44.9882H51.6649L51.6693 44.9884L51.6711 44.9884L51.6715 44.9884L51.6716 44.9884L59.2833 45.2328L60.238 45.2635L59.7192 44.4615L57.438 40.9355C57.8332 40.9297 58.3197 40.9342 58.81 40.9677L58.8348 40.9694L58.8597 40.9686C59.8468 40.9376 61.4785 41.1135 63.4224 41.4106C65.3544 41.7058 67.5582 42.1146 69.6704 42.5356C73.0768 43.2144 76.2234 43.9203 77.6063 44.2305C77.9402 44.3054 78.1713 44.3573 78.2783 44.3801L78.7102 43.5134L66.1393 32.6077L66.1286 32.5984L66.1174 32.5898C61.0807 28.6969 58.024 26.7398 52.4562 24.2266L52.4627 24.2167L53.0918 23.8369L53.8528 23.4824L54.6381 23.1167L55.5905 22.6731L54.6456 22.2137L48.2052 19.0827L49.81 17.1907L50.5085 16.3673H49.4287H43.2034H43.1331L43.0655 16.3867C42.1024 16.6629 41.3593 16.7895 40.5982 16.7876C39.8329 16.7857 39.023 16.654 37.9239 16.3819L37.8743 16.3697L37.8232 16.3677L31.5218 16.1222C31.4968 15.1336 31.5777 14.3256 31.7979 13.506C32.0529 12.5567 32.5014 11.5663 33.2301 10.2409L33.797 9.2096L32.6611 9.5174L32.7919 10C32.6611 9.5174 32.661 9.51744 32.6609 9.51748L32.6605 9.51758L32.6595 9.51784L32.6568 9.5186L32.6477 9.52112L32.6159 9.53019C32.5888 9.53805 32.5499 9.54958 32.5003 9.56495C32.401 9.5957 32.2587 9.64189 32.0814 9.70501C31.727 9.83118 31.2313 10.0255 30.6591 10.3002C29.5183 10.8479 28.0553 11.7239 26.8052 13.0319C25.5781 14.3158 24.6196 15.6978 23.969 16.7549C23.643 17.2844 23.3929 17.7349 23.2237 18.0541C23.2195 18.0622 23.2152 18.0701 23.2111 18.078L22.9068 16.0203L22.7294 14.8202L22.0097 15.7968C20.3855 18.0008 19.0252 19.4988 17.4784 20.6519C15.9334 21.8037 14.1757 22.6312 11.7303 23.4571ZM23.0917 50.3162C23.0918 50.3162 23.0923 50.3164 23.0933 50.317C23.0922 50.3164 23.0917 50.3162 23.0917 50.3162Z" fill="#11181A" stroke="white"/>
<path d="M11.8903 23.9308C11.2299 24.9817 11.1152 26.0157 11.1777 28.3244C7.23869 28.7096 4.76323 32.52 1.12032 32.899C0.868575 32.9343 1.08434 33.4054 1.12031 33.3882L4.83227 38.8769C6.71465 41.7681 7.7564 42.7556 9.73841 43.3589C9.17671 42.1328 8.6681 41.3843 7.58322 39.993C8.22732 40.1682 8.5757 40.2874 9.00886 40.8126C9.01744 40.4545 9.07202 40.2761 9.24805 39.993C9.45564 40.3153 9.6528 40.5658 10.0694 41.0951L10.1091 41.1456C10.4409 40.6771 10.5304 40.3905 10.6353 39.993C10.9648 40.3002 11.079 40.4802 11.1777 40.8126C11.4207 40.4532 11.5774 40.3533 11.8903 40.3369C12.8802 42.2217 13.607 43.0054 15.2755 43.8099C14.2991 40.6853 14.2772 39.4439 14.4932 37.4774C16.2734 37.2917 17.1671 37.7825 17.6897 39.4086C17.556 41.2871 17.4634 42.314 17.0721 43.8099V47.0965C16.0626 46.8699 16.151 46.8161 15.837 46.4716C15.523 46.127 15.7591 47.4059 15.4108 48.148C14.1089 48.0602 13.5108 47.2641 12.6622 45.9731C12.0925 46.4541 11.7618 48.9415 12.1597 49.9425C12.5576 50.9434 16.7843 54.7263 19.7557 53.5568C21.116 53.0729 22.0389 52.4454 23.7644 51.1489V50.8331C23.7644 50.8331 21.5899 51.1489 23.4155 49.4643C25.2411 47.7798 25.7003 47.1251 28.3546 47.0965C30.2917 46.9755 31.0643 47.6766 32.2234 49.4643C34.0482 47.5285 40.6222 45.0464 44.3258 44.7331C48.0295 44.4198 51.681 44.4885 51.681 44.4885L59.2993 44.7331L56.5406 40.4689C56.5406 40.4689 57.6745 40.389 58.844 40.4689C62.9968 40.3383 77.3094 43.6623 78.3826 43.8911L65.8116 32.9854C60.6405 28.9887 57.5855 27.055 51.7128 24.4414L52.1084 23.8466L52.8563 23.395L53.6417 23.0292L54.427 22.6634L47.407 19.2507L49.4287 16.8673H43.2034C41.2211 17.4359 40.0351 17.4196 37.8037 16.8673L31.0407 16.6038C30.9085 14.1259 31.3207 12.6762 32.7919 10C32.7919 10 29.5567 10.8767 27.1666 13.3774C24.7765 15.8781 23.4155 18.7809 23.4155 18.7809H22.8096L22.4122 16.0934C19.1366 20.5386 16.8352 22.2608 11.8903 23.9308Z" fill="#11181A" stroke="black" stroke-width="0.5"/>
<path d="M23.3409 27.7734C22.023 27.9291 20.1474 29.0797 19.5596 30.3683C20.4924 30.874 21.4133 30.8758 22.6035 30.2555C23.3226 29.6004 23.7912 28.9215 23.3409 27.7734Z" fill="#F58108"/>
<ellipse cx="21.0983" cy="28.9584" rx="1.19208" ry="1.18495" fill="#0F1718"/>
<path d="M10.6369 34.9777L8.18198 37.8097C9.69971 38.145 10.6146 38.1276 12.2969 37.9342C14.7024 35.6555 16.6008 34.7047 20.359 34.3179V33.5533C18.223 33.566 16.7586 33.8898 15.2062 34.3179C15.898 33.6052 16.507 33.1964 17.6418 32.8478C17.6418 32.8478 25.6591 32.868 25.8928 32.8478C26.1265 32.8276 28.2125 31.0538 28.8418 28.6962C29.5106 30.5703 30.0803 31.5403 29.1427 33.1688C28.7876 33.5999 28.5235 33.7598 27.9537 33.9194C26.8196 34.3664 24.6627 34.221 24.5584 34.2999C24.454 34.3788 28.8319 36.2923 30.1854 37.9462L27.2134 41.8279C30.0599 39.083 31.8095 38.0091 35.4717 37.7321L31.3139 35.0841C38.6585 34.8455 42.7923 35.36 50.2097 38.0545C47.8435 34.503 45.7644 33.2614 42.7537 31.2948C50.2478 31.5584 54.3679 32.4826 61.2406 35.3684C56.1416 30.4307 52.8702 27.9813 45.3066 24.5404L48.3256 22.649L46.4426 21.5356L43.3892 24.9266C41.0279 26.8433 39.9037 27.8913 36.9563 28.6684L39.5738 24.6382L34.7459 25.9495C37.9468 23.5551 39.8073 22.2919 43.4711 20.4537C42.6012 21.9367 42.3538 22.8632 41.9781 24.5418C43.7233 22.4374 44.5001 21.0705 45.6039 18.3711C40.1193 19.0745 37.119 19.8193 32.0642 22.542C34.6924 20.0915 35.4192 19.9283 36.3844 19.0322C32.7832 18.9558 29.3704 18.7166 27.0336 19.1551C24.6967 19.5936 23.02 20.1739 21.295 21.5823V19.9423C18.3091 22.8349 16.8659 23.9943 12.4686 24.9733C12.443 26.021 12.3808 27.5722 12.4686 27.5154C12.5563 27.4586 13.8367 27.63 14.2919 27.5154C15.053 26.1036 15.7098 25.6814 17.0919 25.2665C16.8034 25.3528 15.6533 28.3268 15.9559 28.6962C16.2586 29.0657 17.3582 29.9125 19.2164 29.7482C20.1334 27.9949 22.4835 26.9982 22.3614 27.0325C22.2393 27.0669 24.2153 26.0507 25.5379 26.11C26.8605 26.1692 27.4433 26.5035 27.8799 27.0325C26.6458 27.3299 26.0648 27.5277 24.8425 28.02C25.0367 31.3811 23.361 31.8917 19.0491 31.784C17.4615 31.1194 16.6674 30.5986 15.3627 29.4967H10.8685L6.11621 32.3134C8.22581 32.9769 9.22543 33.5495 10.6369 34.9777Z" fill="#004650"/>
<path d="M17.3463 47.6615C16.757 48.2924 19.4681 50.0683 19.6658 49.528C19.8635 48.9877 20.9625 48.1453 21.5068 44.3036C22.0511 40.4618 24.1786 39.0633 26.3497 37.3118C26.3497 37.3118 26.5081 37.0418 24.9696 37.5368C23.4312 38.0318 21.3088 39.7306 20.558 42.0594C20.3851 40.5647 20.5644 39.6495 21.395 37.8743C20.6388 38.3545 18.5131 40.6778 18.4603 43.3457C18.7253 46.4943 17.9356 47.0307 17.3463 47.6615Z" fill="#F58108"/>
<path d="M15.6492 50.4049L14.4415 49.883V50.3854L16.5938 50.9425L16.4333 50.4049C15.957 49.232 16.2265 48.5076 16.4333 47.7399C17.755 49.4284 17.8756 49.9476 19.5377 50.1235C19.6122 51.4534 19.4326 51.8981 18.6972 52.1715C16.064 52.4167 13.3133 50.5351 13.0053 49.7424C12.6972 48.9497 12.8075 48.5635 12.8519 47.3418C13.9565 48.174 14.9672 49.5879 15.6492 50.4049Z" fill="white"/>
<path d="M12.3268 38.5642C11.3771 38.8095 8.94691 38.7506 8.13141 38.4284C8.00609 38.3789 7.60711 38.2422 7.60711 38.2422C7.10863 38.5429 6.37559 39.2364 5.8621 39.4289C5.57346 39.5371 6.6809 41.0598 7.60711 41.9213C8.32862 42.5925 8.92121 42.7457 9.09889 42.8276C8.83948 42.2768 7.35763 40.2814 6.8826 39.6729C6.83336 39.5686 6.58505 39.2596 6.66633 39.3149C6.81644 39.4171 6.93884 39.4222 6.99026 39.4289C7.60967 39.5085 7.9636 39.4972 8.63528 39.9646C8.70661 39.5768 9.10118 39.6066 9.20483 39.4113C9.5812 39.8364 9.67221 39.7637 10.0486 40.1888C10.2314 39.994 10.2245 39.6592 10.4916 39.1654C10.796 39.4281 11.2188 39.6292 11.2931 39.9646C11.5716 39.6315 11.9695 39.6234 12.3268 39.4113C12.2758 39.9769 12.6351 41.0976 14.394 42.6175C13.6791 40.9388 13.652 39.4862 13.652 38.9614C13.652 38.6846 13.3389 38.5549 13.1441 38.4962C12.9697 38.4436 12.7755 38.4483 12.3268 38.5642Z" fill="white"/>
<path d="M18.86 35.2622C18.1097 35.4488 16.8485 35.8742 16.6055 36.8145C17.1266 36.4823 17.4888 36.51 18.1396 36.8145L18.2686 36.2311L18.86 36.5738C19.1361 36.5845 19.3395 36.0968 19.4328 36.0123C19.5449 36.0903 19.6136 36.3085 19.687 36.4165C20.51 36.6358 21.7034 35.0342 21.5146 34.8907C21.3259 34.7473 19.6102 35.0757 18.86 35.2622Z" fill="white"/>
<path d="M22.4779 43.9762C22.4159 44.5823 22.5777 45.1836 22.6126 45.7611C24.097 43.151 25.2431 41.4203 26.8443 39.6426H25.1743V41.0943H24.8264V41.4749L23.6107 41.3906L23.6609 41.8728L23.2578 41.7877L23.313 44.1045C23.0209 44.0796 22.77 43.9542 22.4779 43.9762Z" fill="white"/>
<path d="M88.8202 12.8926V17.5188C88.8202 17.7758 89.2476 17.9043 90.1024 17.9043C90.9573 17.9043 91.3847 17.7758 91.3847 17.5188V13.6636L89.7819 13.2781V12.8926H93.6285V17.5188C93.6285 17.7758 94.0559 17.9043 94.9107 17.9043C95.7655 17.9043 96.1929 17.7758 96.1929 17.5188V13.6636L94.5902 13.2781V12.8926H98.4368V17.5188C98.4368 18.2898 97.6888 18.6753 96.1929 18.6753L93.6285 18.2898L92.5066 18.8488L91.3847 18.2898L88.8202 18.6753C87.3243 18.6753 86.5764 18.2898 86.5764 17.5188V13.6636L84.9736 13.2781V12.8926H88.8202Z" fill="#2E464F"/>
<path d="M104.843 12.8926C106.339 12.8926 107.087 13.2781 107.087 14.0491V17.5188C107.087 18.2898 106.339 18.6753 104.843 18.6753H101.958C100.462 18.6753 99.714 18.2898 99.714 17.5188V14.0491C99.714 13.2781 100.462 12.8926 101.958 12.8926H104.843ZM103.4 18.097C104.362 18.097 104.843 17.9043 104.843 17.5188V14.0491C104.843 13.6636 104.362 13.4709 103.4 13.4709C102.439 13.4709 101.958 13.6636 101.958 14.0491V17.5188C101.958 17.9043 102.439 18.097 103.4 18.097Z" fill="#2E464F"/>
<path d="M108.369 13.2781V12.8926H112.215V17.9043H115.742L116.383 16.9405H117.024V18.6753H108.369V18.2898L109.972 17.9043V13.6636L108.369 13.2781Z" fill="#2E464F"/>
<path d="M119.904 17.9043V13.6636L118.301 13.2781V12.8926H125.994V14.6274H125.353L124.712 13.6636H122.148V15.3984H124.391V15.7839L122.148 16.1695V18.6753H118.301V18.2898L119.904 17.9043Z" fill="#2E464F"/>
<path d="M138.17 12.8926L137.529 14.8202H136.567V13.6636H134.804C133.843 13.6636 133.362 13.7921 133.362 14.0491V17.5188C133.362 17.7758 133.843 17.9043 134.804 17.9043H136.567L137.208 16.9405H137.85V18.6753H133.362C131.866 18.6753 131.118 18.2898 131.118 17.5188V14.0491C131.118 13.2781 131.866 12.8926 133.362 12.8926L136.567 13.2781V12.8926H138.17Z" fill="#2E464F"/>
<path d="M141.05 18.6753V18.2898L142.653 17.9043V13.6636H140.409L139.768 14.6274H139.127V12.8926H146.499V13.2781L144.897 13.6636V18.6753H141.05Z" fill="#2E464F"/>
<path d="M150.992 17.5188L148.748 13.6636L147.145 13.2781V12.8926H150.672L152.723 16.4008L154.198 13.6636L152.595 13.2781V12.8926H156.121V13.2781L152.691 17.9043C152.285 18.4183 151.719 18.6753 150.992 18.6753H149.261V18.2898L151.313 17.9043L151.954 17.5188H150.992Z" fill="#2E464F"/>
<path d="M157.083 19.6391V17.9043H157.724L159.968 13.6636L158.365 13.2781V12.8926H165.417L166.058 17.9043H166.699V19.6391H165.737L165.096 18.6753H158.685L158.044 19.6391H157.083ZM159.968 17.9043H163.75L163.333 13.6636H162.211L159.968 17.9043Z" fill="#2E464F"/>
<path d="M167.976 18.6753V18.2898L169.579 17.9043V13.6636L167.976 13.2781V12.8926H171.823V16.555L174.708 12.8926H176.952V18.6753H173.105V18.2898L174.708 17.9043V14.6274L171.823 18.6753H167.976Z" fill="#2E464F"/>
<path d="M184.65 17.9043V15.7839L183.207 15.9767C182.246 16.1052 181.765 16.298 181.765 16.555V18.6753H177.918V18.2898L179.521 17.9043V16.7477C179.521 16.3622 180.269 16.041 181.765 15.7839C180.269 15.7839 179.521 15.4627 179.521 14.8202V14.0491C179.521 13.2781 180.269 12.8926 181.765 12.8926L184.65 13.2781V12.8926H186.894V18.6753H183.047V18.2898L184.65 17.9043ZM184.65 13.6636H183.207C182.246 13.6636 181.765 13.7921 181.765 14.0491V15.0129C181.765 15.2699 182.246 15.3984 183.207 15.3984H184.65V13.6636Z" fill="#2E464F"/>
<path d="M104.937 24.3965L103.122 35.638H100.4V28.8931H95.4092C92.6869 28.8931 91.3257 29.6425 91.3257 31.1414V51.3761C91.3257 52.875 92.6869 53.6244 95.4092 53.6244H100.4L102.215 48.0037H104.03V58.121H91.3257C87.091 58.121 84.9736 55.8727 84.9736 51.3761V31.1414C84.9736 26.6448 87.091 24.3965 91.3257 24.3965L100.4 26.6448V24.3965H104.937Z" fill="#11181A"/>
<path d="M107.645 58.121V55.8727L112.183 53.6244V28.8931L107.645 26.6448V24.3965H118.535V26.6448L125.794 24.3965C130.029 24.3965 132.146 26.6448 132.146 31.1414V34.5139C132.146 38.261 130.936 40.1346 128.517 40.1346C131.541 40.1346 133.054 42.0082 133.054 45.7554V51.3761C133.054 55.8727 130.936 58.121 126.702 58.121L118.535 55.8727V58.121H107.645ZM118.535 53.6244H122.164C125.189 53.6244 126.702 52.875 126.702 51.3761V44.6312C126.702 43.1323 125.34 42.3829 122.618 42.3829H118.535V53.6244ZM118.535 40.1346L122.164 39.0105C124.584 38.261 125.794 37.1369 125.794 35.638V31.1414C125.794 29.6425 124.736 28.8931 122.618 28.8931H118.535V40.1346Z" fill="#11181A"/>
<path d="M151.217 24.3965C155.451 24.3965 157.569 26.6448 157.569 31.1414V51.3761C157.569 55.8727 155.451 58.121 151.217 58.121H143.05C138.815 58.121 136.698 55.8727 136.698 51.3761V31.1414C136.698 26.6448 138.815 24.3965 143.05 24.3965H151.217ZM147.133 54.7486C149.855 54.7486 151.217 53.6244 151.217 51.3761V31.1414C151.217 28.8931 149.855 27.7689 147.133 27.7689C144.411 27.7689 143.05 28.8931 143.05 31.1414V51.3761C143.05 53.6244 144.411 54.7486 147.133 54.7486Z" fill="#11181A"/>
<path d="M161.198 58.121V55.8727L165.736 53.6244V28.8931L161.198 26.6448V24.3965H172.088V45.7554L180.255 24.3965H186.607V58.121H175.717V55.8727L180.255 53.6244V34.5139L172.088 58.121H161.198Z" fill="#11181A"/>
<path d="M108.361 68.4355C108.786 68.4355 108.999 68.3415 108.999 68.1536V65.617C108.999 65.4291 108.786 65.3352 108.361 65.3352H107.724V68.4355H108.361ZM106.023 68.9992V68.7173L106.732 68.4355V65.3352L106.023 65.0533V64.7715H107.724V65.0533L108.999 64.7715C109.66 64.7715 109.991 65.0533 109.991 65.617V68.1536C109.991 68.7173 109.66 68.9992 108.999 68.9992L107.724 68.7173V68.9992H106.023Z" fill="black"/>
<path d="M112.26 68.9992V68.7173L112.969 68.4355V65.3352L112.26 65.0533V64.7715H116.228V68.9992H114.527V68.7173L115.236 68.4355V65.3352H113.961V68.9992H112.26Z" fill="black"/>
<path d="M118.78 65.8989C119.347 65.8989 119.631 66.1807 119.631 66.7444V67.5195L117.647 67.8013V68.1536C117.647 68.4355 117.859 68.5764 118.284 68.5764H118.922L119.205 67.8718H119.489V68.9992H117.647C117.08 68.9992 116.797 68.7173 116.797 68.1536V66.7444C116.797 66.1807 117.127 65.8989 117.789 65.8989H118.78ZM118.78 67.3081V66.7444C118.78 66.4626 118.591 66.3216 118.214 66.3216C117.836 66.3216 117.647 66.4626 117.647 66.7444V67.3081H118.78Z" fill="black"/>
<path d="M122.606 68.4355V67.8718L121.473 68.1536C120.906 68.1536 120.622 67.8718 120.622 67.3081V66.4626L120.056 66.1807V65.8989H121.473V67.3081C121.473 67.496 121.685 67.5899 122.11 67.5899H122.606V66.4626L122.039 66.1807V65.8989H123.456V68.9992H122.039V68.7173L122.606 68.4355Z" fill="black"/>
<path d="M124.732 69.0696C124.165 69.0696 123.881 68.7643 123.881 68.1536V67.8718C123.881 67.3551 124.165 67.0967 124.732 67.0967L125.865 67.3081V66.7444C125.865 66.4626 125.653 66.3216 125.228 66.3216H124.873L124.59 66.8853H124.307V65.8989H125.865C126.432 65.8989 126.715 66.1807 126.715 66.7444V68.9992H125.865V68.8582L124.732 69.0696ZM125.298 67.5899C124.921 67.5899 124.732 67.6839 124.732 67.8718V68.2945C124.732 68.4824 124.921 68.5764 125.298 68.5764H125.865V67.5899H125.298Z" fill="black"/>
<path d="M128.135 68.9992V68.7173L128.701 68.4355V66.4626H127.851L127.568 67.0262H127.284V65.8989H130.26V66.1807L129.552 66.4626V68.9992H128.135Z" fill="black"/>
<path d="M130.685 68.9992V68.7173L131.252 68.4355V66.4626L130.685 66.1807V65.8989H132.102V67.0262H133.094C133.661 67.0262 133.944 67.3081 133.944 67.8718V68.0127C133.944 68.6703 133.661 68.9992 133.094 68.9992L132.102 68.7173V68.9992H130.685ZM132.102 68.4355H132.598C132.929 68.4355 133.094 68.2945 133.094 68.0127V67.8718C133.094 67.5899 132.929 67.449 132.598 67.449H132.102V68.4355Z" fill="black"/>
<path d="M134.511 68.9992V68.8582L134.865 68.7173V68.1536H135.928V68.2945L135.574 68.4355V68.9992L135.29 69.7038H135.007L135.149 68.9992H134.511Z" fill="black"/>
<path d="M139.997 68.9992L139.331 66.984V68.9992H138.197V68.7173L138.764 68.4355V66.4626L138.197 66.1807V65.8989H139.898L140.62 68.1818L141.173 66.4626L140.606 66.1807V65.8989H142.519V68.9992H141.102V68.7173L141.669 68.4355V66.7444L140.719 68.9992H139.997Z" fill="black"/>
<path d="M145.069 65.8989C145.636 65.8989 145.92 66.1807 145.92 66.7444V68.1536C145.92 68.7173 145.636 68.9992 145.069 68.9992H143.936C143.369 68.9992 143.086 68.7173 143.086 68.1536V66.7444C143.086 66.1807 143.369 65.8989 143.936 65.8989H145.069ZM144.503 68.5764C144.881 68.5764 145.069 68.4355 145.069 68.1536V66.7444C145.069 66.4626 144.881 66.3216 144.503 66.3216C144.125 66.3216 143.936 66.4626 143.936 66.7444V68.1536C143.936 68.4355 144.125 68.5764 144.503 68.5764Z" fill="black"/>
<path d="M146.486 69.5628V68.4355H146.77L147.195 66.4626L146.628 66.1807V65.8989H149.32L149.604 68.4355H149.887V69.5628H149.462L149.179 68.9992H147.195L146.912 69.5628H146.486ZM147.549 68.4355H148.725L148.541 66.4626H147.974L147.549 68.4355Z" fill="black"/>
<path d="M152.435 65.8989C153.002 65.8989 153.286 66.1807 153.286 66.7444V67.5195L151.302 67.8013V68.1536C151.302 68.4355 151.514 68.5764 151.94 68.5764H152.577L152.861 67.8718H153.144V68.9992H151.302C150.735 68.9992 150.452 68.7173 150.452 68.1536V66.7444C150.452 66.1807 150.782 65.8989 151.444 65.8989H152.435ZM152.435 67.3081V66.7444C152.435 66.4626 152.247 66.3216 151.869 66.3216C151.491 66.3216 151.302 66.4626 151.302 66.7444V67.3081H152.435Z" fill="black"/>
<path d="M153.711 68.9992V68.7173L154.278 68.4355L154.334 68.1536L154.66 66.4626L154.093 66.1807V65.8989H157.253V68.9992H155.836V68.7173L156.403 68.4355V66.4626H155.51L155.241 68.1536C155.165 68.7173 154.892 68.9992 154.419 68.9992H153.711Z" fill="black"/>
<path d="M157.818 68.9992V68.7173L158.385 68.4355V66.4626L157.818 66.1807V65.8989H159.235V67.8718L160.368 65.8989H161.218V68.9992H159.801V68.7173L160.368 68.4355V66.8853L159.235 68.9992H157.818Z" fill="black"/>
<path d="M163.554 68.4355C163.979 68.4355 164.192 68.3415 164.192 68.1536V66.7444C164.192 66.5565 163.979 66.4626 163.554 66.4626H163.058V68.4355H163.554ZM163.058 65.8989V66.1807L164.192 65.8284C164.759 65.8284 165.042 66.1384 165.042 66.7585V68.1677C165.042 68.769 164.759 69.0696 164.192 69.0696L163.058 68.7173V69.9997H161.641V69.7179L162.208 69.436V66.4626L161.641 66.1807V65.8989H163.058Z" fill="black"/>
<path d="M167.593 65.8989C168.159 65.8989 168.443 66.1807 168.443 66.7444V68.1536C168.443 68.7173 168.159 68.9992 167.593 68.9992H166.459C165.892 68.9992 165.609 68.7173 165.609 68.1536V66.7444C165.609 66.1807 165.892 65.8989 166.459 65.8989H167.593ZM167.026 68.5764C167.404 68.5764 167.593 68.4355 167.593 68.1536V66.7444C167.593 66.4626 167.404 66.3216 167.026 66.3216C166.648 66.3216 166.459 66.4626 166.459 66.7444V68.1536C166.459 68.4355 166.648 68.5764 167.026 68.5764Z" fill="black"/>
<path d="M169.01 68.9992V68.7173L169.576 68.4355V66.4626L169.01 66.1807V65.8989H170.426V66.1807L171.418 65.8989C171.985 65.8989 172.269 66.1807 172.269 66.7444C172.269 67.1202 172.127 67.3081 171.843 67.3081C172.221 67.3081 172.41 67.5899 172.41 68.1536C172.41 68.7173 172.127 68.9992 171.56 68.9992L170.426 68.7173V68.9992H169.01ZM170.426 68.4355H170.852C171.324 68.4355 171.56 68.3415 171.56 68.1536V67.8718C171.56 67.6839 171.348 67.5899 170.922 67.5899H170.426V68.4355ZM170.426 67.3081L170.852 67.1672C171.229 67.0732 171.418 66.9323 171.418 66.7444C171.418 66.5565 171.253 66.4626 170.922 66.4626H170.426V67.3081Z" fill="black"/>
<path d="M173.683 69.0696C173.117 69.0696 172.833 68.7643 172.833 68.1536V67.8718C172.833 67.3551 173.117 67.0967 173.683 67.0967L174.817 67.3081V66.7444C174.817 66.4626 174.604 66.3216 174.179 66.3216H173.825L173.542 66.8853H173.258V65.8989H174.817C175.384 65.8989 175.667 66.1807 175.667 66.7444V68.9992H174.817V68.8582L173.683 69.0696ZM174.25 67.5899C173.872 67.5899 173.683 67.6839 173.683 67.8718V68.2945C173.683 68.4824 173.872 68.5764 174.25 68.5764H174.817V67.5899H174.25Z" fill="black"/>
<path d="M176.236 68.9992V68.7173L176.803 68.4355V66.4626L176.236 66.1807V65.8989H177.653V67.1672H178.787V66.4626L178.22 66.1807V65.8989H179.637V68.9992H178.22V68.7173L178.787 68.4355V67.449L177.653 67.7309V68.9992H176.236Z" fill="black"/>
<path d="M180.201 68.9992V68.7173L180.768 68.4355V66.4626L180.201 66.1807V65.8989H181.618V67.8718L182.752 65.8989H183.602V68.9992H182.185V68.7173L182.752 68.4355V66.8853L181.618 68.9992H180.201Z" fill="black"/>
<path d="M186.15 65.8989C186.717 65.8989 187.001 66.1807 187.001 66.7444V67.5195L185.017 67.8013V68.1536C185.017 68.4355 185.229 68.5764 185.654 68.5764H186.292L186.575 67.8718H186.859V68.9992H185.017C184.45 68.9992 184.167 68.7173 184.167 68.1536V66.7444C184.167 66.1807 184.497 65.8989 185.158 65.8989H186.15ZM186.15 67.3081V66.7444C186.15 66.4626 185.961 66.3216 185.584 66.3216C185.206 66.3216 185.017 66.4626 185.017 66.7444V67.3081H186.15Z" fill="black"/>
<path d="M102.264 66.3686V64.8028H105.727V65.116L104.216 66.3686H104.625C105.36 66.3686 105.727 66.6818 105.727 67.3081V68.4041C105.727 69.0305 105.36 69.3436 104.625 69.3436H102.264V67.9344H102.579L102.893 68.7173H103.996C104.415 68.7173 104.625 68.6129 104.625 68.4041V67.3081C104.625 67.0993 104.415 66.9949 103.996 66.9949H103.208V66.6818L104.342 65.7423L102.893 65.5857L102.579 66.3686H102.264Z" fill="black"/>
</g>
<defs>
<clipPath id="clip0_6_35">
<rect width="187" height="77" fill="white"/>
</clipPath>
</defs>
</svg>
